<?xml version="1.0" standalone="no"?>
<!DOCTYPE svg PUBLIC "-//W3C//DTD SVG 20010904//EN"
 "http://www.w3.org/TR/2001/REC-SVG-20010904/DTD/svg10.dtd">
<svg version="1.0" xmlns="http://www.w3.org/2000/svg"
 width="600.000000pt" height="600.000000pt" viewBox="0 0 600.000000 600.000000"
 preserveAspectRatio="xMidYMid meet">

<g transform="translate(0.000000,600.000000) scale(0.100000,-0.100000)"
fill="#000000" stroke="none">
<path d="M5143 4869 c-157 -20 -538 -134 -734 -220 -65 -28 -238 -129 -369
-214 -36 -23 -92 -60 -125 -81 -161 -102 -556 -499 -540 -542 3 -7 0 -10 -5
-7 -6 3 -13 -2 -17 -12 -4 -10 -15 -27 -26 -38 -10 -11 -33 -44 -50 -72 -17
-29 -37 -53 -43 -53 -6 0 -24 19 -39 43 -15 23 -39 54 -53 70 l-26 27 22 16
c48 34 5 123 -67 137 -19 4 -31 13 -31 22 0 29 103 281 174 426 96 196 142
265 244 367 93 94 119 132 92 132 -19 0 -116 -107 -176 -195 -78 -113 -200
-352 -288 -562 -38 -89 -77 -170 -87 -179 -10 -9 -35 -17 -54 -18 -31 -1 -46
9 -122 82 -199 189 -427 339 -723 475 -74 34 -97 40 -105 28 -9 -16 47 -46
154 -81 148 -49 282 -125 470 -265 97 -72 281 -241 281 -257 0 -5 -9 -18 -20
-30 -42 -45 -29 -128 20 -128 11 0 20 -6 20 -14 0 -15 -28 -163 -35 -184 -3
-9 -32 1 -95 33 -49 25 -96 45 -104 45 -8 0 -16 4 -18 8 -8 21 -282 121 -443
162 -298 76 -342 83 -549 88 -207 4 -441 -9 -561 -33 -38 -8 -92 -17 -120 -21
-45 -6 -107 -21 -335 -80 -143 -37 -338 -137 -497 -256 -71 -53 -95 -77 -101
-101 -5 -18 -8 -34 -6 -36 1 -1 26 5 54 14 28 9 54 15 57 12 3 -4 -8 -9 -23
-13 -16 -4 -45 -15 -65 -25 -36 -18 -37 -21 -53 -106 -23 -128 -20 -159 14
-118 7 9 40 39 74 67 l61 52 -73 -73 c-39 -41 -72 -80 -72 -88 0 -16 85 -109
113 -125 15 -8 25 -5 45 14 21 18 23 19 12 3 -8 -11 -19 -23 -24 -27 -5 -3 14
-18 42 -32 28 -14 68 -40 87 -58 30 -26 38 -29 46 -17 8 12 9 11 7 -2 -2 -10
20 -35 54 -63 31 -25 78 -73 103 -106 26 -34 70 -78 98 -99 29 -21 65 -53 81
-70 29 -30 30 -30 55 -14 26 16 26 16 8 -4 -24 -27 -22 -40 10 -59 16 -10 51
-32 80 -50 152 -97 350 -177 379 -154 12 11 13 10 8 -4 -6 -15 0 -17 42 -15
64 2 151 26 189 52 l30 20 -27 -29 c-16 -17 -28 -37 -28 -45 1 -10 5 -8 16 6
8 11 21 20 30 20 8 0 53 46 102 102 128 149 268 276 416 379 30 22 57 48 60
59 4 13 9 16 13 9 10 -14 38 -4 73 26 20 18 21 19 4 11 -12 -6 -24 -8 -28 -4
-3 3 34 28 82 55 74 42 90 48 107 37 16 -9 18 -9 8 2 -18 18 -16 29 5 29 10 0
29 11 42 25 22 24 16 37 -6 15 -21 -21 -129 -66 -148 -62 -11 2 82 55 239 134
216 108 262 128 279 119 16 -7 17 -10 5 -10 -22 -1 -109 -40 -109 -49 0 -14
74 -4 86 12 6 9 16 16 22 16 6 0 18 7 27 16 9 9 19 13 23 9 4 -3 -18 -29 -48
-57 -30 -28 -125 -120 -211 -204 -155 -153 -157 -154 -202 -154 -78 0 -216
-52 -336 -128 -86 -53 -228 -187 -349 -327 -48 -55 -93 -104 -99 -108 -7 -4
-13 -14 -13 -21 0 -8 -7 -19 -15 -26 -13 -11 -22 -10 -50 3 l-35 17 0 -106 c0
-96 3 -112 32 -182 17 -42 34 -70 36 -62 2 8 10 20 16 25 7 6 29 39 50 75 20
36 41 72 46 80 5 8 24 39 41 68 17 30 46 73 65 97 40 53 25 76 -17 26 -32 -39
-109 -166 -109 -181 0 -5 -4 -10 -8 -10 -5 0 -14 -11 -20 -25 -6 -13 -17 -23
-24 -21 -7 1 -10 1 -5 -1 11 -7 9 -33 -3 -33 -5 0 -10 -9 -10 -19 0 -11 -5
-23 -10 -26 -19 -12 -23 28 -11 109 7 44 12 89 12 100 0 30 46 94 156 218 197
221 351 339 518 397 72 24 142 40 149 34 6 -6 -54 -74 -118 -133 -119 -109
-190 -186 -244 -268 -64 -95 -215 -373 -252 -464 -23 -56 -81 -124 -110 -129
-8 -1 -28 1 -43 6 -15 4 -31 5 -34 1 -10 -10 68 -114 134 -177 69 -66 88 -72
50 -16 -28 41 -41 124 -28 177 28 113 207 454 329 626 49 69 50 46 2 -35 -38
-65 -46 -101 -21 -101 5 0 21 14 35 31 14 17 26 24 26 17 0 -8 -4 -18 -9 -23
-5 -6 -11 -37 -15 -70 -5 -51 -4 -56 6 -35 l12 25 4 -28 4 -29 18 39 c27 57
60 152 59 171 0 9 -12 -14 -26 -53 -27 -75 -53 -115 -53 -81 0 10 8 35 19 55
10 20 26 53 35 74 9 21 21 35 26 32 6 -3 7 1 4 10 -4 8 -2 21 3 28 5 6 15 32
22 55 17 62 25 45 11 -25 -12 -64 -104 -391 -185 -660 -57 -193 -74 -220 -151
-249 -27 -9 -51 -19 -53 -20 -2 -2 21 -31 50 -65 55 -63 104 -101 149 -113
l25 -7 -22 18 c-23 18 -53 113 -53 165 0 15 6 45 14 65 8 21 26 79 41 128 14
50 55 178 90 287 36 108 65 203 65 212 0 9 7 28 16 41 9 14 14 31 11 39 -3 7
-2 17 3 22 18 18 40 131 40 205 l0 77 49 49 c27 26 62 64 78 83 52 65 283 281
293 275 6 -3 10 -2 10 3 0 13 78 97 84 91 3 -3 -22 -40 -55 -83 -51 -67 -189
-278 -189 -291 0 -2 -13 -27 -30 -55 -16 -28 -30 -56 -30 -62 0 -15 34 31 51
70 8 17 17 32 21 32 13 0 8 -53 -7 -80 -20 -34 -20 -60 0 -34 15 19 20 10 15
-25 -1 -12 1 -13 13 -3 9 8 13 21 9 35 -5 20 -4 20 11 8 9 -7 17 -23 17 -34
l0 -21 21 20 c13 14 21 37 23 69 2 30 10 53 20 60 9 7 16 17 16 24 0 6 5 11
10 11 6 0 10 8 10 19 0 10 7 24 15 31 8 7 15 20 15 29 0 10 9 27 20 39 11 12
19 25 18 29 -3 14 30 82 51 104 11 12 23 35 26 50 4 16 13 29 21 29 9 0 14 11
14 30 0 17 4 30 9 30 5 0 15 16 21 35 6 19 15 37 20 40 4 3 1 -17 -8 -44 -8
-28 -18 -48 -21 -46 -3 1 -6 -7 -7 -18 0 -12 -19 -89 -41 -172 -23 -82 -46
-174 -52 -204 -7 -35 -30 -82 -66 -137 -30 -45 -55 -85 -55 -88 0 -3 -13 -24
-29 -48 -49 -73 -80 -138 -75 -156 5 -14 4 -14 -4 -3 -14 19 -47 5 -108 -47
-60 -50 -112 -126 -130 -193 -18 -67 -31 -228 -39 -504 -7 -246 -9 -259 -41
-284 l-25 -20 52 -15 c29 -9 66 -16 83 -16 l31 0 -32 22 c-50 36 -57 73 -49
265 21 482 31 564 83 631 56 74 138 141 153 126 5 -5 5 -28 1 -50 -11 -58 -3
-259 15 -389 25 -186 108 -573 126 -590 8 -7 9 -4 4 10 -7 19 -45 209 -86 430
-49 267 -52 532 -7 622 44 86 158 263 170 263 4 0 7 -21 7 -47 0 -70 19 -205
46 -328 44 -199 54 -248 49 -255 -3 -5 0 -10 5 -12 6 -2 12 -19 13 -38 2 -19
8 -44 14 -55 6 -11 14 -35 18 -54 6 -29 22 -70 55 -146 5 -11 19 -47 32 -81
31 -79 96 -194 110 -194 7 0 7 4 0 13 -15 18 -74 166 -125 312 -66 187 -106
337 -113 419 -3 39 -8 89 -11 111 -11 88 -14 375 -4 450 6 44 13 94 15 110 2
17 11 55 20 85 9 29 16 65 16 80 0 14 7 35 15 46 8 10 15 27 15 37 0 25 19 21
24 -5 3 -13 8 -90 11 -173 4 -82 8 -166 10 -185 17 -211 78 -530 136 -704 21
-65 39 -127 39 -137 0 -10 4 -19 9 -19 4 0 26 -38 47 -85 21 -47 44 -85 51
-85 14 0 18 16 5 22 -20 8 -129 280 -163 408 -10 37 -65 288 -72 330 -16 90
-18 114 -7 100 8 -11 9 0 5 45 -8 84 -13 130 -15 130 -11 0 -27 141 -29 255
-1 63 -4 135 -6 160 -4 50 2 80 15 80 5 0 7 -7 4 -15 -4 -8 -2 -15 4 -15 10 0
22 23 22 42 0 6 -9 8 -19 5 -15 -3 -19 0 -18 14 3 38 36 10 66 -56 12 -27 27
-57 32 -65 18 -29 21 -41 14 -48 -4 -4 -10 -1 -12 6 -3 6 -12 12 -21 12 -13 0
-10 -6 11 -23 17 -13 28 -32 28 -47 2 -164 48 -393 126 -620 18 -54 96 -217
117 -245 22 -30 30 -12 11 25 -9 18 -14 34 -11 38 8 7 9 6 44 -61 l30 -58 4
43 c2 24 1 50 -3 58 -16 36 -39 91 -39 96 0 3 11 -8 25 -25 14 -16 31 -28 38
-26 46 14 77 14 77 0 0 -8 5 -15 11 -15 5 0 7 5 4 11 -4 6 -9 70 -10 142 -3
126 -24 267 -45 307 -5 10 -10 36 -10 57 0 22 -4 43 -9 49 -5 5 -12 23 -14 41
-4 24 -1 33 11 36 12 3 10 5 -6 6 -22 1 -41 30 -47 76 -2 11 -15 51 -29 90
-27 73 -32 105 -17 105 5 0 11 8 13 18 3 9 12 -10 23 -43 10 -33 28 -82 40
-110 71 -156 149 -391 179 -541 14 -66 28 -179 32 -252 4 -73 8 -131 10 -130
15 16 25 304 13 363 -4 17 -14 64 -23 105 -21 100 -64 226 -113 330 -22 47
-48 107 -59 134 -10 27 -20 44 -22 38 -2 -6 2 -21 8 -33 10 -17 9 -20 -1 -17
-7 2 -17 17 -22 34 -5 16 -15 43 -22 59 -7 17 -15 46 -18 65 l-6 35 19 -40
c15 -32 20 -35 20 -17 0 12 -6 33 -14 45 -8 12 -17 40 -21 61 -6 36 -5 38 9
27 19 -16 20 -9 6 22 -25 51 61 -60 90 -116 17 -34 37 -69 45 -77 41 -47 211
-458 231 -559 6 -31 24 -44 24 -17 0 29 -123 350 -175 459 -57 117 -133 258
-144 267 -15 12 -71 100 -64 100 4 0 18 -15 30 -33 13 -17 34 -45 49 -62 15
-16 38 -48 52 -70 14 -22 35 -49 46 -60 12 -11 26 -29 32 -40 6 -11 23 -42 37
-68 15 -26 27 -55 27 -65 0 -13 2 -14 9 -4 6 11 11 7 20 -15 18 -43 37 -73 43
-67 3 3 4 23 1 45 -10 70 17 41 83 -92 13 -25 30 -52 39 -59 8 -7 15 -22 15
-33 0 -16 3 -18 11 -10 9 9 6 23 -10 55 -11 24 -22 56 -23 71 -1 15 -6 27 -10
27 -4 0 -8 6 -8 14 0 8 -6 17 -12 19 -8 3 -6 6 5 6 19 1 20 1 84 -179 98 -274
153 -453 188 -615 20 -93 41 -174 46 -180 11 -11 1 118 -12 153 -12 32 -11 50
2 32 14 -20 3 81 -17 170 -20 82 -53 183 -64 190 -7 4 -80 199 -80 213 0 3 -9
27 -21 53 -14 33 -23 44 -28 35 -6 -10 -10 -9 -14 4 -4 9 -3 13 3 10 16 -10
11 27 -10 70 -24 50 -24 54 -2 50 9 -1 16 -7 15 -13 -1 -5 5 -8 15 -6 9 2 40
-9 67 -26 28 -16 79 -45 115 -65 58 -32 150 -106 150 -122 0 -3 25 -54 54
-113 30 -59 72 -147 92 -196 35 -86 144 -407 144 -427 0 -22 52 -177 60 -177
13 0 -68 297 -120 435 -64 173 -119 301 -160 380 -71 134 -84 155 -97 155 -7
0 -13 6 -13 14 0 9 10 12 32 10 17 -2 28 -1 25 2 -3 4 -23 9 -44 11 -20 2 -42
8 -48 12 -21 17 -222 119 -289 146 -71 30 -85 41 -180 145 -33 36 -107 115
-166 175 -58 61 -110 117 -115 125 -14 23 95 -64 176 -141 16 -15 30 -24 33
-22 2 3 11 -4 18 -16 7 -12 18 -21 25 -21 7 0 31 -16 52 -35 22 -20 43 -35 48
-34 21 4 31 -3 37 -25 5 -22 9 -24 37 -16 25 7 30 6 25 -5 -3 -10 1 -15 14
-15 10 0 22 -5 25 -10 3 -6 17 -7 31 -4 25 6 34 -10 12 -20 -7 -3 -3 -3 10 0
13 3 29 0 37 -6 11 -9 15 -9 15 -1 0 8 5 9 19 1 11 -5 22 -10 25 -10 18 0 -2
22 -70 74 -76 61 -110 95 -61 64 15 -10 39 -25 55 -35 59 -35 111 -71 202
-137 126 -92 133 -95 80 -47 -48 45 -75 64 -245 178 -176 117 -259 166 -449
263 -71 37 -101 56 -87 58 11 2 30 -3 43 -10 13 -7 30 -13 38 -14 8 -1 26 -2
39 -3 20 -1 21 -3 11 -16 -8 -9 -9 -15 -2 -15 6 0 14 5 18 11 3 6 18 9 33 6
38 -7 229 -56 281 -72 25 -8 93 -26 151 -40 125 -30 185 -57 194 -86 8 -25
219 -238 310 -314 33 -28 80 -69 105 -92 25 -23 56 -51 70 -63 14 -11 54 -49
90 -83 36 -34 94 -89 130 -122 71 -65 116 -143 127 -221 4 -29 9 -41 14 -33 7
13 79 225 79 233 0 2 -16 -2 -36 -9 -25 -8 -50 -9 -82 -3 -40 7 -56 18 -105
71 -33 34 -76 80 -96 102 -39 41 -88 88 -299 284 -67 63 -122 119 -122 126 0
7 -7 18 -15 25 -8 7 -16 22 -16 34 -1 17 -2 17 -6 4 -6 -24 -23 -23 -23 2 0
11 7 20 15 20 8 0 23 5 33 11 14 9 25 8 48 -5 l29 -16 -29 6 c-26 6 -27 5 -17
-14 7 -14 20 -20 40 -20 16 1 42 -9 59 -21 17 -11 34 -21 39 -21 12 1 -38 39
-66 51 -13 5 -21 12 -18 16 10 9 164 -68 251 -126 43 -28 80 -51 83 -51 4 0
29 -17 57 -38 28 -20 62 -43 76 -50 99 -51 224 -198 222 -262 -1 -53 18 -43
50 25 29 63 30 71 24 143 -9 94 -15 104 -35 61 -15 -32 -19 -34 -71 -37 -49
-2 -60 1 -105 33 -60 43 -260 179 -322 219 -24 15 -42 30 -40 33 5 4 115 -53
132 -68 12 -12 28 -12 20 1 -3 6 1 7 9 4 9 -3 16 -10 16 -15 0 -5 8 -9 18 -9
9 0 39 -12 66 -26 26 -14 49 -24 51 -22 2 2 -18 19 -46 38 -36 24 -46 36 -37
43 9 6 7 7 -6 3 -11 -4 -22 -3 -25 2 -3 4 -23 18 -44 31 -30 19 -36 27 -31 45
6 21 6 21 -10 1 -9 -12 -15 -15 -16 -7 0 7 -6 12 -12 11 -30 -5 -68 14 -68 33
0 15 -4 18 -12 11 -20 -14 -62 -15 -94 -2 -16 7 -45 14 -64 14 -19 1 -69 13
-110 27 -41 14 -122 37 -180 51 -189 45 -198 57 -66 82 91 17 281 20 358 4
176 -35 319 -83 479 -158 79 -38 169 -126 201 -198 20 -45 21 -46 30 -24 13
36 0 90 -37 151 -18 30 -44 78 -58 107 -15 28 -31 53 -37 55 -17 5 6 58 25 58
24 0 67 24 137 78 118 90 156 137 234 288 73 140 73 141 51 153 l-22 12 23 -5
c30 -6 47 32 112 254 49 166 83 257 178 471 29 64 54 133 58 154 9 58 -12 125
-57 177 -49 58 -103 84 -202 97 -90 13 -491 13 -584 0z m417 -236 c46 -15 84
-41 45 -30 -11 3 -37 9 -57 12 -20 4 -45 16 -55 28 -17 20 -17 20 2 13 11 -4
40 -14 65 -23z m-790 -63 c0 -6 -10 -10 -22 -10 -13 0 -41 -2 -63 -5 l-40 -5
33 12 c40 16 92 20 92 8z m55 1 c3 -6 -3 -9 -14 -8 -11 0 -17 5 -15 9 7 11 22
10 29 -1z m836 -44 c-16 -16 -26 0 -10 19 9 11 15 12 17 4 2 -6 -1 -17 -7 -23z
m-51 -8 c11 -6 6 -8 -15 -9 -41 0 -76 10 -69 21 5 9 60 1 84 -12z m-743 5 c-3
-3 -12 -4 -19 -1 -8 3 -5 6 6 6 11 1 17 -2 13 -5z m-164 -11 c-7 -2 -21 -2
-30 0 -10 3 -4 5 12 5 17 0 24 -2 18 -5z m-179 -85 c5 -32 4 -48 -3 -48 -7 0
-11 22 -11 52 0 62 5 60 14 -4z m-89 20 c-11 -7 -20 -10 -20 -7 -1 2 -12 -3
-26 -12 -13 -9 -40 -20 -59 -24 -19 -4 -44 -13 -55 -19 -11 -7 -45 -21 -75
-31 -30 -10 -62 -25 -70 -34 -8 -9 -26 -22 -40 -28 -24 -11 -24 -12 -3 -12 12
-1 25 4 29 11 5 8 11 6 20 -6 7 -10 17 -15 23 -12 5 4 12 2 16 -4 4 -6 10 -8
15 -5 11 7 40 -5 40 -15 0 -5 -10 -10 -22 -13 -22 -3 -22 -4 5 -15 15 -6 27
-16 27 -21 0 -5 10 -11 23 -14 20 -3 21 -4 3 -12 -13 -6 -21 -3 -28 8 -13 24
-25 21 -61 -13 -35 -33 -52 -39 -43 -15 8 22 0 18 -29 -12 -14 -16 -25 -22
-25 -14 0 11 -3 11 -15 1 -11 -9 -19 -8 -37 4 -12 9 -17 16 -11 16 6 0 13 12
16 26 5 30 -12 41 -42 24 -12 -6 -21 -7 -21 -2 0 16 24 32 48 32 14 0 22 5 20
12 -7 19 -24 20 -41 3 -9 -8 -20 -15 -26 -15 -6 0 -11 -4 -11 -8 0 -5 -12 -15
-27 -23 -16 -7 -47 -30 -70 -51 -40 -36 -63 -47 -63 -30 1 8 212 166 255 189
79 42 167 83 180 83 7 0 16 4 19 8 3 5 36 17 73 27 37 10 75 22 83 26 24 14
49 10 25 -3z m42 -77 l-4 -78 -63 -62 c-61 -61 -174 -129 -184 -112 -4 5 22
23 56 39 63 30 168 118 168 140 0 7 4 12 10 12 5 0 7 7 4 15 -7 17 4 125 12
125 3 0 3 -35 1 -79z m1326 59 c26 -7 46 -15 44 -17 -7 -6 -100 18 -112 29 -6
6 -5 8 5 5 8 -3 37 -11 63 -17z m-205 -13 c6 -5 12 -15 12 -21 0 -6 -7 -3 -14
7 -8 10 -20 15 -30 11 -11 -4 -16 -1 -16 10 0 16 22 13 48 -7z m-870 -84 c-38
-2 -98 -2 -135 0 -38 2 -7 3 67 3 74 0 105 -1 68 -3z m97 -3 c3 -5 1 -10 -4
-10 -6 0 -11 5 -11 10 0 6 2 10 4 10 3 0 8 -4 11 -10z m775 -5 c-7 -8 -24 -14
-39 -14 l-26 2 25 4 c14 3 29 9 35 14 15 15 19 10 5 -6z m-683 -1 c-3 -3 -12
-4 -19 -1 -8 3 -5 6 6 6 11 1 17 -2 13 -5z m160 -10 c-3 -3 -12 -4 -19 -1 -8
3 -5 6 6 6 11 1 17 -2 13 -5z m-553 -39 c5 -22 4 -26 -4 -15 -5 8 -10 24 -10
34 0 26 6 18 14 -19z m576 1 c0 -2 -18 -6 -40 -8 -22 -2 -40 0 -40 4 0 5 18 8
40 8 22 0 40 -2 40 -4z m360 -36 c0 -5 -4 -10 -10 -10 -5 0 -10 5 -10 10 0 6
5 10 10 10 6 0 10 -4 10 -10z m-931 -116 c-20 -23 -49 -60 -64 -83 -30 -44
-44 -50 -23 -10 21 40 61 93 84 112 l22 17 -30 30 c-35 35 -35 35 -62 13 -16
-13 -15 -11 3 9 l24 28 42 -38 41 -37 -37 -41z m996 96 c3 -5 1 -10 -4 -10 -6
0 -11 5 -11 10 0 6 2 10 4 10 3 0 8 -4 11 -10z m-1105 -55 c-11 -13 -10 -18 6
-29 10 -8 15 -18 11 -23 -5 -4 -13 0 -18 9 -6 11 -16 14 -31 10 -28 -7 -56
-32 -37 -32 25 0 -2 -13 -88 -41 -48 -16 -130 -50 -180 -75 -58 -28 -100 -43
-112 -39 -11 3 -26 -1 -36 -11 -11 -12 -19 -14 -27 -6 -15 15 29 37 77 38 27
0 56 11 89 32 27 17 82 45 123 62 40 17 96 44 123 60 27 16 56 28 62 26 7 -1
9 -1 4 2 -5 3 2 13 15 23 27 20 38 17 19 -6z m-190 5 c0 -5 -4 -10 -10 -10 -5
0 -10 5 -10 10 0 6 5 10 10 10 6 0 10 -4 10 -10z m-280 -29 c-6 -12 -20 -21
-32 -21 -20 0 -19 2 8 25 32 28 41 26 24 -4z m800 -1 c60 -6 56 -7 -43 -7 -90
-1 -111 -4 -130 -19 -19 -16 -19 -15 2 9 27 30 45 31 171 17z m-620 -20 c0 -5
-7 -10 -15 -10 -8 0 -15 5 -15 10 0 6 7 10 15 10 8 0 15 -4 15 -10z m763 3
c-7 -2 -19 -2 -25 0 -7 3 -2 5 12 5 14 0 19 -2 13 -5z m637 -8 c-13 -16 -65
-21 -56 -6 3 5 15 7 26 4 11 -3 20 0 20 6 0 6 5 11 11 11 8 0 8 -5 -1 -15z
m-1640 -16 c0 -14 -17 -10 -23 5 -4 10 -1 13 9 9 7 -3 14 -9 14 -14z m1103 14
c-7 -2 -19 -2 -25 0 -7 3 -2 5 12 5 14 0 19 -2 13 -5z m-1143 -13 c0 -5 -5
-10 -11 -10 -5 0 -7 5 -4 10 3 6 8 10 11 10 2 0 4 -4 4 -10z m140 6 c0 -3 -4
-8 -10 -11 -5 -3 -10 -1 -10 4 0 6 5 11 10 11 6 0 10 -2 10 -4z m1093 -3 c-7
-2 -21 -2 -30 0 -10 3 -4 5 12 5 17 0 24 -2 18 -5z m-1054 -26 c-19 -13 -83
-37 -87 -33 -6 6 81 45 87 40 2 -2 2 -5 0 -7z m-89 -7 c0 -5 -5 -10 -11 -10
-5 0 -7 5 -4 10 3 6 8 10 11 10 2 0 4 -4 4 -10z m576 -30 c-14 -17 -26 -29
-26 -25 0 12 42 66 47 61 3 -3 -6 -19 -21 -36z m-431 20 c-3 -5 -11 -10 -16
-10 -6 0 -7 5 -4 10 3 6 11 10 16 10 6 0 7 -4 4 -10z m270 -22 c-2 -23 -25
-39 -25 -17 0 10 -3 10 -12 1 -14 -14 -58 -16 -58 -3 0 15 33 30 91 40 3 1 5
-9 4 -21z m-535 2 c-20 -13 -40 -13 -40 0 0 6 12 10 28 10 21 0 24 -2 12 -10z
m52 -12 c-6 -6 -15 -8 -19 -4 -4 4 -1 11 7 16 19 12 27 3 12 -12z m1361 15
c-7 -2 -19 -2 -25 0 -7 3 -2 5 12 5 14 0 19 -2 13 -5z m-170 -10 c-7 -2 -19
-2 -25 0 -7 3 -2 5 12 5 14 0 19 -2 13 -5z m-1143 -17 c0 -11 -19 -15 -25 -6
-3 5 1 10 9 10 9 0 16 -2 16 -4z m104 -20 c-10 -8 -21 -12 -23 -10 -3 2 4 11
15 18 10 8 21 12 23 10 3 -2 -4 -11 -15 -18z m211 11 c-13 -10 -15 -16 -6 -21
12 -8 6 -26 -9 -26 -5 0 -7 7 -4 15 9 21 -25 19 -42 -2 -12 -17 -13 -16 -14 5
0 16 6 22 23 22 12 0 29 5 37 10 23 15 36 12 15 -3z m1390 -5 c-3 -3 -11 0
-18 7 -9 10 -8 11 6 5 10 -3 15 -9 12 -12z m-996 -1 c8 -5 -5 -7 -35 -4 -27 3
-51 7 -53 9 -9 8 75 3 88 -5z m821 -1 c0 -5 -4 -10 -10 -10 -5 0 -10 5 -10 10
0 6 5 10 10 10 6 0 10 -4 10 -10z m244 -6 c26 -9 46 -18 44 -20 -5 -4 -85 20
-94 29 -11 10 -3 9 50 -9z m-1360 -9 c-4 -8 -7 -15 -9 -15 -2 0 -5 7 -9 15 -3
9 0 15 9 15 9 0 12 -6 9 -15z m409 -5 c4 -3 -6 -5 -23 -2 -17 2 -33 8 -36 14
-6 10 46 0 59 -12z m-313 0 c0 -14 -38 -32 -58 -28 -13 3 -10 8 13 21 35 19
45 21 45 7z m664 -9 c4 -5 -3 -7 -14 -4 -23 6 -26 13 -6 13 8 0 17 -4 20 -9z
m381 -19 c-8 -8 -25 10 -19 20 4 6 9 5 15 -3 4 -7 6 -15 4 -17z m-1360 8 c-3
-5 -10 -10 -16 -10 -5 0 -9 5 -9 10 0 6 7 10 16 10 8 0 12 -4 9 -10z m770 -10
c42 -12 54 -18 30 -14 -50 7 -115 23 -115 29 0 8 11 6 85 -15z m-395 -4 c-19
-6 -41 -15 -47 -19 -7 -5 -13 -4 -13 1 0 13 41 31 70 30 21 0 20 -2 -10 -12z
m148 7 c-10 -2 -26 -2 -35 0 -10 3 -2 5 17 5 19 0 27 -2 18 -5z m-554 -12 c4
-5 -3 -7 -14 -4 -23 6 -26 13 -6 13 8 0 17 -4 20 -9z m653 -7 c-3 -3 -12 -4
-19 -1 -8 3 -5 6 6 6 11 1 17 -2 13 -5z m438 -4 c3 -6 -1 -7 -9 -4 -18 7 -21
14 -7 14 6 0 13 -4 16 -10z m-1279 -29 c-4 -6 -15 -11 -24 -10 -11 0 -12 3 -4
6 6 2 12 12 12 21 0 12 3 13 11 5 6 -6 8 -16 5 -22z m244 19 c0 -5 -4 -10 -9
-10 -6 0 -13 5 -16 10 -3 6 1 10 9 10 9 0 16 -4 16 -10z m1297 4 c-3 -3 -12
-4 -19 -1 -8 3 -5 6 6 6 11 1 17 -2 13 -5z m-1407 -26 c0 -6 -6 -5 -15 2 -8 7
-15 14 -15 16 0 2 7 1 15 -2 8 -4 15 -11 15 -16z m987 16 c-3 -3 -12 -4 -19
-1 -8 3 -5 6 6 6 11 1 17 -2 13 -5z m-117 -14 c18 -12 2 -12 -25 0 -13 6 -15
9 -5 9 8 0 22 -4 30 -9z m215 -10 c7 -12 -2 -12 -30 0 -19 8 -19 9 2 9 12 1
25 -3 28 -9z m321 -25 c-30 -26 -56 -33 -56 -15 0 6 8 10 18 10 11 0 27 9 37
20 10 11 21 18 24 15 3 -3 -8 -17 -23 -30z m-1481 15 c-3 -5 -15 -10 -26 -10
-10 0 -19 -4 -19 -10 0 -5 -4 -10 -10 -10 -18 0 -10 17 13 28 28 14 50 15 42
2z m1029 1 c3 -4 -6 -6 -19 -3 -14 2 -25 6 -25 8 0 8 39 4 44 -5z m246 -21 c0
-5 -5 -10 -11 -10 -5 0 -7 5 -4 10 3 6 8 10 11 10 2 0 4 -4 4 -10z m-473 -6
c-3 -3 -12 -4 -19 -1 -8 3 -5 6 6 6 11 1 17 -2 13 -5z m93 -14 c20 -6 21 -8 5
-8 -11 0 -31 4 -45 8 -20 6 -21 8 -5 8 11 0 31 -4 45 -8z m355 -20 c8 -13 -5
-13 -25 0 -13 8 -13 10 2 10 9 0 20 -4 23 -10z m-92 -17 c-7 -2 -21 -2 -30 0
-10 3 -4 5 12 5 17 0 24 -2 18 -5z m-3338 -65 c-28 -17 -97 -17 -83 0 6 6 31
12 57 12 39 -1 43 -2 26 -12z m75 2 c0 -5 -6 -10 -14 -10 -8 0 -18 5 -21 10
-3 6 3 10 14 10 12 0 21 -4 21 -10z m3538 -4 c33 -17 68 -54 59 -63 -4 -3 -7
-1 -7 5 0 6 -16 19 -35 28 -30 14 -38 14 -52 3 -15 -12 -16 -12 -10 4 4 10 7
23 7 28 0 12 6 11 38 -5z m-3733 -6 c-3 -5 -15 -10 -26 -10 -10 0 -19 5 -19
10 0 6 12 10 26 10 14 0 23 -4 19 -10z m268 3 c-13 -2 -33 -2 -45 0 -13 2 -3
4 22 4 25 0 35 -2 23 -4z m-363 -17 c-19 -8 -39 -11 -45 -8 -11 7 29 20 60 20
12 0 6 -5 -15 -12z m1873 -1 c-3 -9 -8 -14 -10 -11 -3 3 -2 9 2 15 9 16 15 13
8 -4z m-1940 -12 c-7 -2 -19 -2 -25 0 -7 3 -2 5 12 5 14 0 19 -2 13 -5z m2855
-11 c-27 -5 -21 -20 7 -18 16 0 23 6 20 14 -2 7 4 12 15 12 11 0 20 -4 20 -10
0 -5 -4 -10 -10 -10 -20 0 -10 -28 13 -35 19 -6 20 -8 4 -12 -10 -3 -26 2 -36
11 -22 20 -32 20 -25 1 11 -28 -25 -16 -41 15 -19 37 -19 38 8 42 26 5 50 -5
25 -10z m290 8 c6 0 12 -7 12 -16 0 -14 -3 -14 -15 -4 -19 16 -28 9 -19 -14 3
-9 16 -16 28 -15 43 4 56 -1 56 -21 0 -11 5 -20 11 -20 7 0 9 11 5 31 -6 30
-5 30 27 24 17 -3 56 -13 85 -22 44 -13 53 -20 49 -35 -3 -10 1 -25 10 -33 8
-8 10 -15 4 -15 -5 0 -13 5 -16 10 -4 6 -11 8 -16 4 -6 -3 -33 -3 -61 1 -30 4
-45 10 -38 15 9 6 9 9 -1 16 -7 4 -14 3 -17 -4 -2 -7 -22 -12 -44 -12 -33 0
-45 6 -75 39 -19 22 -46 42 -59 45 -13 4 -24 11 -24 16 0 13 27 13 35 0 3 -5
11 -10 17 -10 6 0 5 7 -3 17 -13 15 -11 16 11 10 14 -4 31 -7 38 -7z m-393
-10 c20 10 26 10 37 -1 8 -8 14 -23 14 -34 0 -15 -7 -20 -31 -21 -16 -1 -33 3
-37 9 -5 8 -15 7 -34 -1 -14 -7 -29 -11 -31 -8 -9 8 8 26 23 26 11 0 13 6 8
22 -6 21 -5 21 10 9 14 -12 21 -12 41 -1z m218 -12 c14 -20 16 -21 16 -5 1 18
3 17 34 -2 19 -11 37 -18 40 -14 4 3 7 1 7 -5 0 -7 6 -12 14 -12 7 0 19 -6 25
-14 11 -13 3 -14 -50 -10 -35 3 -70 11 -79 19 -9 8 -25 15 -34 15 -12 0 -16 5
-12 16 3 9 6 20 6 25 0 16 17 9 33 -13z m-346 -8 c3 -11 10 -20 16 -20 7 0 7
-4 -1 -12 -10 -10 -15 -10 -21 1 -9 14 -35 10 -79 -11 -16 -8 -25 -9 -33 -1
-17 17 7 51 38 56 62 9 75 7 80 -13z m53 10 c0 -5 -9 -10 -20 -10 -11 0 -20 5
-20 10 0 6 9 10 20 10 11 0 20 -4 20 -10z m520 1 c0 -6 -4 -13 -10 -16 -5 -3
-10 1 -10 9 0 9 5 16 10 16 6 0 10 -4 10 -9z m-3307 -27 c-6 -17 -23 -9 -23
11 0 8 6 12 14 9 8 -3 12 -12 9 -20z m3937 -14 c-14 -26 -14 -26 30 -38 33
-10 31 -10 -19 -7 -29 2 -56 6 -59 9 -3 3 -1 6 4 6 5 0 18 16 29 36 11 20 21
31 23 26 2 -6 -2 -21 -8 -32z m-4090 18 c-14 -6 -58 -26 -99 -45 -40 -19 -76
-32 -78 -29 -10 9 7 24 34 29 16 3 37 13 48 22 17 14 18 16 2 11 -12 -4 -16
-2 -11 5 3 6 19 9 35 5 16 -3 29 -1 29 4 0 6 15 10 33 9 32 0 32 0 7 -11z
m2750 3 c0 -6 -4 -13 -10 -16 -16 -10 -12 -25 8 -25 13 0 14 -2 3 -9 -10 -7
-10 -10 -1 -16 7 -4 16 -2 20 5 9 15 52 9 58 -8 2 -7 -2 -10 -12 -6 -9 3 -29
1 -46 -5 -26 -8 -34 -7 -49 8 -9 9 -15 23 -13 29 2 7 -3 12 -10 12 -8 0 -15 7
-15 15 0 18 13 20 21 3 4 -10 9 -8 18 5 14 19 28 23 28 8z m-2635 -31 c21 -40
19 -48 -5 -20 -18 21 -27 50 -15 50 2 0 11 -13 20 -30z m-65 1 c0 -10 -25 -21
-48 -21 -12 0 -9 4 8 14 31 17 40 19 40 7z m4164 -6 c-6 -16 -42 -30 -51 -21
-4 3 1 6 9 6 9 0 21 7 28 15 16 19 21 19 14 0z m-4474 -5 c0 -5 -10 -10 -22
-9 -22 0 -22 1 -3 9 11 5 21 9 23 9 1 1 2 -3 2 -9z m464 -49 c-6 -6 -44 30
-44 42 0 5 11 -1 24 -14 14 -13 23 -26 20 -28z m2422 29 c0 -23 -11 -27 -19
-6 -3 8 -1 17 6 20 7 2 12 5 12 5 1 1 1 -8 1 -19z m232 -5 c-3 -3 -9 2 -12 12
-6 14 -5 15 5 6 7 -7 10 -15 7 -18z m32 11 c0 -8 -4 -18 -10 -21 -5 -3 -10 3
-10 14 0 12 5 21 10 21 6 0 10 -6 10 -14z m114 -1 c-7 -17 -34 -21 -34 -5 0 6
-7 10 -15 10 -8 0 -15 -4 -15 -10 0 -5 -4 -10 -10 -10 -5 0 -10 7 -10 15 0 11
12 15 45 15 35 0 43 -3 39 -15z m90 0 c4 -12 -3 -15 -29 -15 -19 0 -35 5 -35
10 0 6 11 8 25 4 15 -4 25 -2 25 5 0 16 7 14 14 -4z m68 -12 c17 -15 18 -15
18 0 0 10 5 17 10 17 6 0 10 -4 10 -9 0 -12 62 -21 75 -11 6 4 19 4 30 -1 11
-4 34 -8 50 -9 l30 -2 -30 -9 c-16 -5 -68 -6 -115 -3 -65 4 -90 10 -105 25
-25 24 0 27 27 2z m-3532 -3 c0 -5 -8 -10 -17 -10 -15 0 -16 2 -3 10 19 12 20
12 20 0z m3065 0 c8 -13 -5 -13 -25 0 -13 8 -13 10 2 10 9 0 20 -4 23 -10z
m-2885 -7 c0 -10 -240 -137 -246 -131 -2 3 13 13 33 24 21 10 47 27 58 37 11
10 33 21 48 24 15 3 25 8 22 11 -3 3 12 14 32 23 42 20 53 23 53 12z m101 -18
c-30 -14 -56 -23 -58 -21 -6 6 77 44 97 45 8 0 -9 -10 -39 -24z m-485 6 c-3
-5 -16 -11 -28 -14 -22 -6 -22 -5 -4 8 22 17 40 20 32 6z m717 -26 c-10 -7
-40 -24 -68 -40 -27 -15 -81 -45 -118 -67 -37 -23 -70 -38 -73 -36 -5 6 54 44
70 45 5 1 12 5 15 10 10 14 70 53 81 53 19 0 80 45 80 59 0 11 3 11 15 1 14
-11 13 -14 -2 -25z m-523 14 c0 -20 -80 -24 -104 -6 -16 12 -10 13 43 13 33
-1 61 -4 61 -7z m3405 0 c-16 -5 -43 -5 -60 0 -25 7 -20 9 30 9 49 -1 55 -2
30 -9z m428 -7 c-2 -6 2 -12 7 -12 6 0 10 4 10 8 0 4 12 7 28 6 43 -2 44 -3
38 -19 -6 -16 13 -55 26 -55 5 0 8 7 8 15 0 18 26 20 36 3 5 -7 3 -8 -5 -4 -7
5 -18 1 -25 -9 -17 -23 -52 -15 -47 10 3 19 2 19 -16 2 -29 -25 -123 -19 -123
9 0 8 -5 14 -11 14 -5 0 -7 -5 -3 -11 7 -11 -39 -7 -89 7 -31 9 -9 22 37 21
26 0 54 7 68 16 26 18 64 18 61 -1z m-3100 -28 c106 1 110 -9 5 -15 -108 -5
-136 -1 -149 23 -12 22 -11 22 12 7 18 -12 50 -15 132 -15z m-513 11 c0 -8
-103 -55 -108 -50 -6 6 -8 5 48 33 45 22 60 26 60 17z m995 -15 c3 -5 1 -10
-4 -10 -6 0 -11 5 -11 10 0 6 2 10 4 10 3 0 8 -4 11 -10z m-641 -31 c3 -17 5
-50 5 -73 -1 -36 -3 -33 -9 19 -4 32 -13 61 -19 63 -16 5 -14 22 3 22 7 0 16
-14 20 -31z m701 21 c-3 -5 -14 -10 -23 -9 -14 0 -13 2 3 9 27 11 27 11 20 0z
m55 -6 c0 -2 -7 -4 -15 -4 -8 0 -15 4 -15 10 0 5 7 7 15 4 8 -4 15 -8 15 -10z
m2707 10 c-3 -3 -12 -4 -19 -1 -8 3 -5 6 6 6 11 1 17 -2 13 -5z m347 -25 c32
-26 32 -32 0 -69 -30 -32 -88 -50 -107 -31 -8 8 1 11 36 11 36 0 49 4 54 18 4
9 11 20 16 23 15 10 0 40 -23 46 -11 3 -20 9 -20 14 0 15 16 10 44 -12z
m-4454 -19 c-45 -39 -60 -39 -18 0 18 16 38 29 43 29 6 0 -6 -13 -25 -29z
m1060 19 c-47 -4 -121 -15 -166 -24 -60 -12 -95 -14 -137 -7 -55 9 -75 3 -62
-17 3 -5 1 -12 -5 -16 -6 -4 -10 6 -10 24 l0 30 93 0 c50 -1 126 3 167 8 41 6
104 10 140 10 64 0 63 0 -20 -8z m2530 -9 c70 -20 284 -119 275 -128 -2 -2
-32 5 -67 16 -119 37 -309 71 -488 85 -20 2 -41 7 -48 11 -7 4 -21 4 -32 1
-11 -4 -20 -2 -20 4 0 6 15 11 33 11 17 1 61 2 97 5 36 2 55 1 42 -2 -33 -7
-16 -23 26 -23 34 0 35 1 16 15 -19 14 -19 14 2 15 12 0 24 -7 28 -15 3 -8 11
-15 18 -14 10 0 10 2 1 6 -7 2 -13 11 -13 19 0 20 42 18 130 -6z m594 4 c6
-15 4 -15 -11 -3 -10 7 -20 15 -22 16 -2 2 3 3 11 3 9 0 19 -7 22 -16z m-4014
-11 c0 -7 -52 -34 -125 -65 -38 -17 0 12 56 42 57 31 69 35 69 23z m390 0 c-1
-10 -70 -45 -70 -35 0 8 50 41 63 42 4 0 7 -3 7 -7z m720 3 c0 -2 -7 -6 -15
-10 -8 -3 -15 -1 -15 4 0 6 7 10 15 10 8 0 15 -2 15 -4z m3124 -20 c-6 -16
-24 -23 -24 -8 0 10 22 33 27 28 2 -2 1 -11 -3 -20z m-4744 5 c0 -5 -12 -11
-27 -14 -16 -3 -37 -8 -48 -12 -11 -3 -2 3 20 14 46 22 55 24 55 12z m1720
-12 c0 -4 -7 -6 -15 -3 -8 4 -15 10 -15 15 0 4 7 6 15 3 8 -4 15 -10 15 -15z
m1810 11 c0 -5 -2 -10 -4 -10 -3 0 -8 5 -11 10 -3 6 -1 10 4 10 6 0 11 -4 11
-10z m-3220 -46 c-25 -14 -60 -35 -79 -47 -22 -13 -31 -16 -26 -6 13 21 44 42
89 60 61 25 67 22 16 -7z m180 12 c0 -2 -7 -7 -16 -10 -8 -3 -12 -2 -9 4 6 10
25 14 25 6z m3284 -11 c139 -17 285 -46 381 -75 150 -45 397 -129 365 -124
-19 3 -55 13 -80 21 -25 8 -83 21 -130 29 -47 7 -119 20 -160 29 -80 16 -260
20 -225 5 11 -5 38 -9 60 -9 69 -2 261 -43 470 -101 22 -6 54 -17 70 -25 17
-7 44 -16 60 -20 17 -4 54 -18 83 -31 59 -27 62 -28 62 -15 0 5 -11 12 -25 15
-14 4 -25 10 -25 15 0 4 16 3 35 -3 19 -6 35 -16 35 -22 0 -13 -38 -54 -51
-54 -5 0 -62 22 -127 49 -172 72 -321 119 -420 132 -109 15 -305 6 -392 -16
-36 -10 -72 -18 -79 -20 -25 -3 -24 -23 1 -28 20 -4 20 -4 -5 -6 -16 0 -30 5
-33 13 -3 8 -12 12 -21 9 -8 -3 -18 -2 -22 4 -9 14 -134 45 -153 38 -9 -4 -18
0 -21 9 -4 11 -19 16 -42 16 -20 0 -34 4 -31 9 3 5 -22 14 -57 20 -80 15 -127
30 -127 41 0 11 82 19 95 9 18 -13 128 -14 133 -1 2 8 10 9 20 3 9 -5 26 -5
37 -1 11 4 33 4 50 -1 41 -10 115 -18 115 -13 0 3 -13 10 -30 15 -50 18 -23
30 56 25 46 -3 72 -1 69 4 -4 6 -16 10 -28 10 -13 0 -39 8 -59 19 -33 16 -50
17 -155 11 -65 -5 -135 -11 -155 -15 -38 -7 -49 -19 -25 -28 6 -3 0 -6 -15 -6
-17 -1 -27 4 -25 12 1 7 -10 13 -28 14 -16 1 -23 -1 -13 -3 9 -3 19 -12 22
-19 4 -12 2 -13 -14 -3 -15 9 -27 8 -59 -7 -23 -10 -43 -16 -45 -14 -2 2 6 17
20 32 21 24 33 28 96 33 40 3 79 7 87 10 8 2 44 7 80 10 36 3 67 7 68 8 10 10
203 4 307 -9z m-2989 -14 c-3 -6 -15 -11 -25 -11 -10 0 -22 -4 -25 -10 -3 -5
-12 -10 -18 -10 -7 0 6 12 28 25 39 24 53 26 40 6z m486 2 c13 -16 12 -17 -3
-4 -17 13 -22 21 -14 21 2 0 10 -8 17 -17z m-161 3 c0 -3 -4 -8 -10 -11 -5 -3
-10 -1 -10 4 0 6 5 11 10 11 6 0 10 -2 10 -4z m1889 -12 c2 -2 -3 -4 -12 -4
-20 0 -23 -16 -4 -23 7 -4 8 -6 1 -6 -6 -1 -17 6 -24 14 -15 18 -50 20 -50 3
0 -9 -3 -8 -9 2 -16 24 -1 31 47 24 26 -4 49 -8 51 -10z m-2364 -19 c-16 -14
-34 -25 -38 -25 -4 0 -54 -31 -110 -69 -56 -37 -131 -88 -167 -112 -36 -24
-66 -47 -68 -51 -7 -16 -22 -7 -22 13 0 11 4 17 10 14 11 -7 45 12 74 40 9 9
16 14 16 11 0 -6 30 17 62 47 10 9 18 14 18 11 0 -3 22 10 48 30 27 19 59 40
73 46 13 5 47 23 74 39 62 36 68 37 30 6z m2405 15 c0 -5 -7 -10 -16 -10 -8 0
-12 5 -9 10 3 6 10 10 16 10 5 0 9 -4 9 -10z m-2560 -20 c-8 -5 -17 -7 -19 -4
-3 3 1 9 9 14 8 5 17 7 19 4 3 -3 -1 -9 -9 -14z m560 5 c0 -8 17 -19 40 -26
39 -12 75 -39 52 -39 -6 0 -13 4 -16 9 -3 4 -26 14 -51 21 -33 9 -45 18 -45
31 0 11 5 19 10 19 6 0 10 -7 10 -15z m188 8 c-10 -2 -26 -2 -35 0 -10 3 -2 5
17 5 19 0 27 -2 18 -5z m1890 -5 c-2 -6 -10 -14 -18 -16 -8 -3 -10 0 -5 8 6
10 2 12 -13 8 -12 -4 -22 -2 -22 3 0 5 14 9 31 9 19 0 29 -4 27 -12z m472 2
c0 -6 -32 -10 -77 -9 -57 1 -70 3 -48 9 45 11 125 11 125 0z m-1393 -6 c-3 -3
-12 -4 -19 -1 -8 3 -5 6 6 6 11 1 17 -2 13 -5z m-1817 -9 c0 -2 -24 -18 -52
-35 -35 -19 -67 -30 -93 -30 -29 0 -36 3 -25 10 8 5 24 7 35 5 11 -3 41 8 70
25 48 29 65 35 65 25z m2670 -11 c0 -2 -11 -4 -25 -4 -14 0 -25 4 -25 9 0 4
11 6 25 3 14 -2 25 -6 25 -8z m-3071 -18 c-12 -6 -23 -19 -25 -29 -1 -11 -6
-22 -10 -25 -4 -4 -4 1 -1 11 5 13 3 17 -5 14 -7 -2 -13 -10 -13 -18 -1 -21
-13 -37 -38 -50 -21 -11 -21 -11 -6 7 9 10 20 28 23 39 8 25 75 77 88 69 5 -4
0 -11 -13 -18z m2946 14 c3 -5 2 -10 -4 -10 -6 0 -8 -7 -5 -15 4 -8 1 -15 -5
-15 -6 0 -11 11 -11 25 0 25 14 33 25 15z m420 0 c3 -5 -1 -10 -10 -10 -9 0
-13 5 -10 10 3 6 8 10 10 10 2 0 7 -4 10 -10z m-2958 -36 c-16 -14 -31 -24
-33 -21 -5 5 44 47 55 47 3 0 -7 -12 -22 -26z m717 -24 c26 -13 51 -29 55 -34
6 -7 -21 -32 -75 -69 -46 -31 -84 -54 -84 -50 1 7 52 51 117 100 14 11 13 14
-8 32 -13 11 -31 20 -41 21 -9 0 -18 4 -20 10 -2 5 -18 6 -40 1 -21 -5 -38 -5
-38 -1 0 26 73 20 134 -10z m71 2 c-3 -3 -11 0 -18 7 -9 10 -8 11 6 5 10 -3
15 -9 12 -12z m-1365 4 c0 -2 -8 -10 -17 -17 -16 -13 -17 -12 -4 4 13 16 21
21 21 13z m3293 -185 c-5 -7 -76 63 -136 134 -37 44 -25 35 45 -35 52 -52 93
-97 91 -99z m-2163 172 c-1 -10 -71 -46 -77 -40 -4 5 56 45 70 46 4 1 7 -2 7
-6z m1507 -59 c-30 -31 -40 -35 -77 -32 l-41 3 68 46 c55 37 70 44 76 32 6
-10 -2 -25 -26 -49z m-2127 26 c-13 -11 -28 -20 -33 -20 -6 0 3 11 19 25 15
13 30 22 33 20 2 -3 -6 -14 -19 -25z m315 20 c-3 -5 -12 -10 -18 -10 -7 0 -6
4 3 10 19 12 23 12 15 0z m675 -2 c0 -4 -15 -8 -32 -7 -26 0 -29 2 -13 8 25
10 45 10 45 -1z m113 -5 c-7 -2 -21 -2 -30 0 -10 3 -4 5 12 5 17 0 24 -2 18
-5z m-833 -22 c-8 -5 -28 -11 -45 -15 l-30 -6 25 15 c14 8 34 14 45 14 16 0
17 -1 5 -8z m2344 -7 c3 -8 2 -12 -4 -9 -6 3 -10 10 -10 16 0 14 7 11 14 -7z
m-2444 1 c0 -2 -10 -10 -22 -16 -21 -11 -22 -11 -9 4 13 16 31 23 31 12z m350
-14 c0 -8 -20 -18 -75 -38 -5 -2 8 7 30 21 45 29 45 29 45 17z m416 1 c-10
-16 -96 -73 -96 -63 0 6 13 17 29 25 16 9 31 22 34 31 4 8 14 15 22 15 9 0 14
-3 11 -8z m1244 -2 c0 -5 -4 -10 -10 -10 -5 0 -10 5 -10 10 0 6 5 10 10 10 6
0 10 -4 10 -10z m-1306 -14 c-10 -8 -21 -12 -24 -10 -5 6 21 24 34 24 6 0 1
-6 -10 -14z m706 8 c0 -14 -54 -74 -66 -74 -8 0 -14 -4 -14 -8 0 -5 -22 -18
-48 -29 -26 -12 -54 -28 -61 -37 -8 -9 -24 -16 -37 -16 -12 0 -26 -5 -29 -11
-4 -6 -13 -8 -20 -5 -7 2 -16 -3 -20 -12 -3 -9 -1 -18 4 -20 17 -6 13 -16 -10
-30 -19 -12 -20 -11 -14 8 6 19 5 21 -14 11 -16 -9 -19 -18 -15 -40 6 -27 0
-33 -87 -94 -52 -36 -101 -71 -110 -80 -9 -8 -49 -35 -88 -61 -50 -32 -69 -40
-61 -27 9 17 2 16 -46 -10 -44 -23 -60 -27 -70 -18 -11 9 -18 8 -31 -1 -10 -7
5 8 32 33 28 26 59 56 70 67 12 11 29 20 38 20 10 0 16 4 13 8 -3 5 9 23 27
40 53 51 211 172 225 172 6 0 12 4 12 9 0 5 15 18 33 30 94 60 137 92 137 103
0 9 -3 9 -12 0 -7 -7 -19 -12 -28 -12 -8 0 -26 -12 -39 -26 -13 -14 -30 -23
-38 -20 -7 3 -13 -1 -13 -9 0 -14 -12 -19 -32 -16 -5 0 -8 -5 -8 -13 0 -7 -12
-22 -26 -32 -132 -96 -207 -155 -253 -197 l-54 -51 -17 22 c-18 22 -37 31 -25
12 3 -5 1 -10 -4 -10 -20 0 -11 -18 11 -26 20 -6 17 -10 -33 -58 -60 -58 -89
-74 -89 -51 0 8 9 15 19 15 18 0 47 51 42 73 -1 5 8 20 19 34 24 31 26 51 3
32 -14 -12 -14 -10 1 14 20 29 32 34 39 15 2 -7 8 -9 13 -5 5 4 2 12 -6 17
-10 6 -11 12 -5 18 6 5 52 45 102 90 51 45 98 82 104 82 11 0 68 23 102 42 11
5 22 6 25 2 4 -4 1 -9 -5 -11 -7 -3 -13 -9 -13 -14 0 -10 40 8 50 21 10 14
176 89 233 105 32 9 67 15 78 12 10 -3 19 -1 19 3 0 5 15 11 33 13 17 2 38 5
45 5 6 1 12 -1 12 -4z m1024 -25 c-8 -13 -24 -1 -24 18 0 13 3 13 15 3 8 -7
12 -16 9 -21z m226 21 c8 -5 11 -10 5 -10 -5 0 -17 5 -25 10 -8 5 -10 10 -5
10 6 0 17 -5 25 -10z m-2650 -8 c0 -4 -13 -16 -30 -25 -38 -23 -40 -8 -2 15
32 20 32 20 32 10z m4095 -2 c8 -13 -5 -13 -25 0 -13 8 -13 10 2 10 9 0 20 -4
23 -10z m-3455 -35 c-13 -14 -26 -23 -28 -20 -3 3 -14 -2 -24 -12 -10 -9 -21
-14 -23 -11 -5 5 82 68 93 68 3 0 -5 -11 -18 -25z m-880 5 c0 -5 -5 -10 -11
-10 -5 0 -7 5 -4 10 3 6 8 10 11 10 2 0 4 -4 4 -10z m4470 0 c28 -17 1 -22
-37 -7 l-38 16 30 0 c17 1 37 -3 45 -9z m-4186 -22 c-10 -13 -23 -26 -29 -30
-39 -28 -45 -33 -45 -40 0 -4 -11 -18 -25 -32 -14 -14 -25 -20 -25 -13 0 6 30
40 66 74 68 64 92 81 58 41z m181 -3 c-39 -32 -54 -32 -18 0 15 13 33 24 38
25 6 0 -3 -11 -20 -25z m-324 -5 c-13 -11 -28 -20 -35 -20 -6 0 3 9 19 20 38
25 47 25 16 0z m713 -38 c-178 -169 -372 -317 -471 -358 -35 -15 -36 -15 -23
2 14 16 56 57 99 94 10 8 30 26 44 39 15 14 27 21 27 17 0 -5 -23 -30 -52 -57
-29 -27 -48 -49 -44 -49 16 0 196 126 250 175 18 17 64 57 101 90 38 33 75 68
84 77 8 10 17 15 20 13 2 -3 -13 -22 -35 -43z m-138 6 c-9 -12 -16 -18 -16
-13 0 5 -22 -12 -49 -39 -27 -27 -54 -47 -60 -45 -6 2 -7 9 -3 14 11 17 95 81
115 88 9 4 17 12 17 18 0 7 3 10 6 6 3 -3 -1 -16 -10 -29z m1154 8 c-19 -17
-60 -30 -60 -19 0 5 12 14 28 20 39 15 49 15 32 -1z m-1560 0 c0 -2 -12 -12
-27 -21 l-28 -18 19 21 c17 20 36 29 36 18z m79 -26 c-32 -27 -59 -42 -59 -33
1 9 73 62 79 57 2 -2 -7 -13 -20 -24z m-339 16 c0 -2 -7 -7 -16 -10 -8 -3 -12
-2 -9 4 6 10 25 14 25 6z m730 0 c0 -9 -52 -58 -57 -53 -3 3 8 17 23 31 29 26
34 29 34 22z m-1030 -28 c0 -16 -3 -19 -11 -11 -6 6 -8 16 -5 22 11 17 16 13
16 -11z m719 3 c-12 -17 -49 -46 -49 -36 0 4 53 55 57 55 2 0 -2 -8 -8 -19z
m2045 -3 c8 -13 18 -35 21 -50 6 -23 4 -28 -11 -28 -11 0 -29 -3 -41 -6 -21
-6 -23 -3 -23 30 0 40 15 76 30 76 5 0 16 -10 24 -22z m364 2 c7 -11 11 -20 9
-20 -2 0 -12 9 -22 20 -10 11 -14 20 -9 20 5 0 15 -9 22 -20z m-3260 -12 c-42
-39 -59 -48 -29 -15 19 20 37 35 39 32 2 -2 -2 -10 -10 -17z m2167 12 c-9 -15
-66 -43 -73 -36 -7 7 -5 8 38 29 42 20 43 20 35 7z m1395 -32 c0 -4 -16 0 -35
10 -19 9 -35 20 -35 24 0 4 16 0 35 -10 19 -9 35 -20 35 -24z m-2619 19 c-1
-12 -15 -9 -19 4 -3 6 1 10 8 8 6 -3 11 -8 11 -12z m1624 -83 c-37 -130 -46
-156 -52 -150 -3 2 2 26 10 53 8 26 25 81 37 122 12 40 23 71 26 69 2 -3 -7
-45 -21 -94z m1555 71 l45 -15 -44 4 c-24 2 -48 9 -54 15 -15 15 -1 14 53 -4z
m-3269 -54 c-47 -46 -50 -50 -29 -54 20 -3 19 -5 -9 -12 -41 -9 -108 -105 -74
-105 5 0 11 9 14 20 4 14 11 18 24 14 15 -5 16 -4 3 5 -13 9 -12 12 8 17 12 4
22 11 22 18 0 6 5 4 10 -4 8 -13 11 -11 16 8 4 12 11 22 18 22 6 1 26 14 45
30 63 53 45 22 -24 -42 -37 -35 -89 -84 -117 -110 -27 -27 -54 -48 -60 -48
-19 0 2 92 29 127 14 18 29 33 34 33 5 0 9 6 9 13 0 6 23 32 52 57 28 25 56
50 62 56 6 7 13 10 15 8 2 -2 -20 -26 -48 -53z m-151 33 c0 -8 -4 -13 -9 -10
-4 3 -23 -8 -41 -24 -19 -17 -38 -30 -44 -30 -12 0 74 79 87 80 4 0 7 -7 7
-16z m1380 6 c0 -13 -38 -32 -50 -25 -6 4 -19 -4 -29 -16 -10 -12 -23 -19 -29
-15 -19 12 -14 21 21 36 72 31 87 34 87 20z m1221 -7 c13 -16 12 -17 -3 -4
-17 13 -22 21 -14 21 2 0 10 -8 17 -17z m-2511 -2 c0 -5 -7 -12 -16 -15 -14
-5 -15 -4 -4 9 14 17 20 19 20 6z m-234 -46 c-77 -62 -95 -61 -55 4 15 25 23
31 29 21 6 -10 12 -9 31 4 51 35 47 13 -5 -29z m494 20 c-13 -14 -28 -25 -34
-25 -11 1 40 50 51 50 4 0 -4 -11 -17 -25z m730 10 c-7 -8 -18 -15 -24 -15 -6
0 -2 7 8 15 25 19 32 19 16 0z m837 -7 c-3 -8 -6 -5 -6 6 -1 11 2 17 5 13 3
-3 4 -12 1 -19z m-702 -8 c-4 -6 5 -10 19 -10 31 0 34 -15 7 -29 -15 -9 -20
-7 -24 9 -3 11 -10 20 -16 20 -15 0 -14 -27 2 -33 9 -4 9 -7 -1 -18 -11 -12
-14 -12 -22 1 -5 8 -6 18 -4 22 9 14 -13 8 -26 -7 -7 -8 -19 -15 -27 -15 -8 0
-11 -5 -8 -10 3 -6 18 -7 33 -4 l27 6 -25 -21 c-14 -11 -39 -27 -56 -36 -18
-8 -65 -40 -105 -72 -86 -66 -74 -55 -183 -162 -47 -47 -86 -81 -86 -75 1 19
77 119 89 116 7 -1 10 2 6 8 -7 12 58 101 116 157 25 23 95 69 159 102 117 61
136 69 125 51z m705 -25 c0 -8 -2 -15 -4 -15 -2 0 -6 7 -10 15 -3 8 -1 15 4
15 6 0 10 -7 10 -15z m-2325 -15 c3 -5 1 -10 -6 -10 -7 0 -9 -10 -6 -26 4 -23
3 -24 -10 -11 -9 9 -13 23 -8 36 7 22 20 27 30 11z m695 -3 c0 -2 -15 -13 -32
-26 l-33 -22 28 25 c26 24 37 31 37 23z m-407 -14 c11 -10 -13 -33 -34 -33
-24 0 -24 9 -1 26 20 15 26 17 35 7z m2376 -20 c15 -16 31 -41 35 -56 4 -15
17 -32 29 -37 20 -9 20 -10 -8 -9 -77 3 -95 -2 -129 -31 -19 -17 -37 -27 -39
-23 -8 14 -5 63 4 57 5 -3 9 9 9 27 0 27 -2 30 -15 19 -16 -13 -21 0 -6 16 5
5 11 18 13 29 3 17 21 26 71 34 4 0 20 -11 36 -26z m-138 -133 c18 -125 53
-287 69 -325 5 -11 25 -65 44 -120 18 -55 50 -135 70 -179 37 -81 43 -102 26
-91 -5 3 -15 24 -21 45 -12 41 -32 57 -21 18 3 -12 1 -19 -5 -15 -5 3 -20 39
-33 79 -12 40 -31 97 -42 127 -10 30 -25 82 -33 115 -47 203 -66 289 -75 351
-6 39 -15 83 -20 98 -8 24 -7 28 7 25 13 -2 20 -29 34 -128z m899 120 c0 -5
-4 -10 -10 -10 -5 0 -10 5 -10 10 0 6 5 10 10 10 6 0 10 -4 10 -10z m-3350
-30 c0 -5 -7 -10 -16 -10 -8 0 -12 5 -9 10 3 6 10 10 16 10 5 0 9 -4 9 -10z
m-280 -4 c0 -2 -8 -10 -17 -17 -16 -13 -17 -12 -4 4 13 16 21 21 21 13z m2225
-50 c-14 -19 -27 -44 -28 -55 -1 -12 -4 -21 -8 -21 -4 0 -18 -21 -31 -47 -13
-27 -27 -51 -32 -54 -5 -4 -5 -13 0 -20 6 -12 5 -12 -9 0 -23 18 -22 26 8 65
14 18 25 37 25 43 0 5 8 20 19 32 10 12 29 37 42 56 13 19 28 35 32 35 4 0 -4
-15 -18 -34z m-545 -1 c0 -2 -26 -23 -57 -47 -32 -23 -67 -51 -78 -61 -11 -10
-38 -33 -60 -50 l-40 -31 35 38 c30 34 185 156 196 156 2 0 4 -2 4 -5z m735
-45 c-9 -41 -17 -33 -9 9 4 17 9 30 11 27 3 -2 2 -19 -2 -36z m1055 1 c0 -11
-6 -9 -20 7 -11 12 -20 24 -20 27 0 3 9 0 20 -7 11 -7 20 -19 20 -27z m-3100
15 c0 -8 -4 -18 -10 -21 -5 -3 -10 3 -10 14 0 12 5 21 10 21 6 0 10 -6 10 -14z
m2556 -40 c10 -11 24 -30 31 -43 12 -22 11 -23 -32 -23 -52 0 -93 -16 -117
-44 -20 -25 -37 -13 -20 14 7 11 12 27 12 35 0 8 5 15 10 15 14 0 13 27 -2 32
-17 6 0 28 22 28 10 0 20 7 23 15 5 12 10 12 30 2 13 -7 32 -21 43 -31z
m-1854 12 c-7 -7 -12 -8 -12 -2 0 14 12 26 19 19 2 -3 -1 -11 -7 -17z m-880
-49 c-30 -28 -56 -48 -58 -46 -5 5 96 97 106 97 3 0 -19 -23 -48 -51z m178 15
c0 -8 -5 -12 -10 -9 -6 4 -8 11 -5 16 9 14 15 11 15 -7z m36 -29 c17 -16 14
-18 -10 -9 -9 3 -16 10 -16 15 0 13 9 11 26 -6z m64 -5 c0 -5 -5 -10 -11 -10
-5 0 -7 5 -4 10 3 6 8 10 11 10 2 0 4 -4 4 -10z m726 -66 c-30 -21 -45 -16
-16 6 14 10 27 16 30 13 3 -2 -4 -11 -14 -19z m1727 12 c33 -15 77 -49 77 -60
0 -3 -25 -6 -55 -6 -47 0 -59 -4 -90 -31 -29 -26 -36 -28 -41 -15 -3 8 1 23
10 31 10 11 13 25 9 46 -4 23 -3 28 9 24 9 -4 18 1 21 9 8 20 19 20 60 2z
m-1803 -5 c0 -5 -8 -11 -17 -15 -10 -3 -24 -9 -30 -12 -7 -3 -13 -1 -13 5 0 7
10 16 23 21 29 12 37 12 37 1z m-537 -35 c25 -19 21 -27 -10 -24 -22 2 -28 -1
-28 -17 -1 -11 -7 -29 -13 -40 -11 -18 -12 -16 -7 15 7 38 25 80 34 80 3 0 14
-7 24 -14z m377 -18 c0 -5 -4 -8 -10 -8 -5 0 -10 10 -10 23 0 18 2 19 10 7 5
-8 10 -18 10 -22z m2594 -32 c9 -27 15 -51 12 -53 -4 -4 -46 100 -46 114 0 18
20 -17 34 -61z m-2529 44 c-3 -5 -11 -10 -16 -10 -6 0 -7 5 -4 10 3 6 11 10
16 10 6 0 7 -4 4 -10z m105 -9 c0 -13 -127 -54 -145 -47 -29 11 -15 21 30 22
24 0 50 6 57 11 7 6 22 13 33 16 11 2 21 5 23 6 1 0 2 -3 2 -8z m990 -25 c0
-3 -4 -8 -10 -11 -5 -3 -10 -1 -10 4 0 6 5 11 10 11 6 0 10 -2 10 -4z m234
-21 c-6 -16 -24 -21 -24 -7 0 11 11 22 21 22 5 0 6 -7 3 -15z m613 -12 c12 -3
26 -17 31 -32 6 -14 13 -33 16 -42 5 -12 0 -14 -28 -11 -28 3 -44 -2 -76 -28
-42 -33 -58 -34 -45 -3 11 24 13 63 3 69 -15 10 -8 34 8 27 10 -4 17 2 21 17
4 17 11 20 27 15 11 -4 31 -9 43 -12z m-2283 -4 c-11 -19 -126 -67 -146 -61
-31 8 -20 17 21 17 25 1 53 10 77 27 42 29 59 35 48 17z m1698 -29 c2 -22 0
-40 -4 -40 -5 0 -8 18 -8 40 0 22 2 40 4 40 2 0 6 -18 8 -40z m-1560 -51 c-15
-17 -17 -18 -20 -4 -2 9 -1 23 2 32 5 12 9 13 20 3 13 -10 12 -14 -2 -31z
m2038 -13 c0 -4 -9 2 -19 15 -11 13 -17 28 -14 33 6 8 32 -30 33 -48z m729 4
c0 -9 -4 -8 -9 5 -5 11 -9 27 -9 35 0 9 4 8 9 -5 5 -11 9 -27 9 -35z m-2770
-36 c11 7 16 -6 5 -17 -10 -10 -34 5 -34 22 0 13 2 13 9 2 5 -7 14 -10 20 -7z
m111 10 c0 -8 -71 -36 -78 -30 -2 3 4 8 14 11 10 4 26 10 34 15 18 10 30 12
30 4z m755 -14 c-10 -11 -21 -18 -23 -15 -3 3 3 12 14 20 27 20 30 18 9 -5z
m1306 0 c24 -13 24 -27 2 -33 -14 -4 -13 -5 4 -6 49 -2 25 -35 -35 -47 -8 -1
-21 -9 -31 -18 -15 -14 -16 -12 -16 27 1 45 22 87 43 87 7 0 22 -5 33 -10z
m-2021 -34 c0 -2 -8 -10 -17 -17 -16 -13 -17 -12 -4 4 13 16 21 21 21 13z
m-40 -46 c0 -5 -5 -10 -11 -10 -5 0 -7 5 -4 10 3 6 8 10 11 10 2 0 4 -4 4 -10z
m1970 0 c0 -5 -2 -10 -4 -10 -3 0 -8 5 -11 10 -3 6 -1 10 4 10 6 0 11 -4 11
-10z m108 -42 c5 -7 13 -23 16 -35 6 -19 4 -22 -11 -17 -13 5 -12 2 5 -10 22
-17 30 -60 13 -70 -16 -10 -71 87 -71 125 0 22 32 26 48 7z m-58 -49 c0 -6 -4
-7 -10 -4 -5 3 -10 11 -10 16 0 6 5 7 10 4 6 -3 10 -11 10 -16z m767 -211 c-3
-8 -6 -5 -6 6 -1 11 2 17 5 13 3 -3 4 -12 1 -19z"/>
<path d="M4160 4239 c0 -5 -4 -8 -9 -5 -15 10 -20 -22 -5 -34 8 -7 14 -11 15
-9 5 28 7 59 3 59 -2 0 -4 -5 -4 -11z"/>
<path d="M4077 4213 c5 -13 2 -15 -11 -10 -12 5 -16 3 -14 -5 7 -21 33 -14 36
10 2 12 -1 22 -7 22 -6 0 -7 -8 -4 -17z"/>
<path d="M4046 4161 c-4 -5 3 -7 14 -4 23 6 26 13 6 13 -8 0 -17 -4 -20 -9z"/>
<path d="M4652 3629 c2 -7 10 -15 17 -17 8 -3 12 1 9 9 -2 7 -10 15 -17 17 -8
3 -12 -1 -9 -9z"/>
<path d="M4770 3616 c29 -27 36 -26 20 3 -6 12 -18 21 -28 21 -13 0 -12 -5 8
-24z"/>
<path d="M4810 3619 c0 -5 5 -7 10 -4 6 3 10 8 10 11 0 2 -4 4 -10 4 -5 0 -10
-5 -10 -11z"/>
<path d="M4836 3604 c-11 -7 -18 -16 -15 -18 2 -2 13 2 23 10 11 7 18 16 15
18 -2 2 -13 -2 -23 -10z"/>
<path d="M4237 3674 c-13 -13 -7 -24 14 -24 11 0 19 5 17 12 -5 14 -22 21 -31
12z"/>
<path d="M4498 3643 c6 -2 18 -2 25 0 6 3 1 5 -13 5 -14 0 -19 -2 -12 -5z"/>
<path d="M4060 3666 c0 -9 5 -16 10 -16 6 0 10 4 10 9 0 6 -4 13 -10 16 -5 3
-10 -1 -10 -9z"/>
<path d="M4015 3650 c-3 -5 -1 -10 4 -10 6 0 11 5 11 10 0 6 -2 10 -4 10 -3 0
-8 -4 -11 -10z"/>
<path d="M4730 3535 c0 -8 5 -15 10 -15 6 0 10 7 10 15 0 8 -4 15 -10 15 -5 0
-10 -7 -10 -15z"/>
<path d="M4640 3520 c0 -5 5 -10 10 -10 6 0 10 5 10 10 0 6 -4 10 -10 10 -5 0
-10 -4 -10 -10z"/>
<path d="M4690 3515 c-18 -21 -5 -31 15 -12 8 9 11 18 6 21 -5 3 -14 -1 -21
-9z"/>
<path d="M4205 3380 c3 -5 11 -10 16 -10 6 0 7 5 4 10 -3 6 -11 10 -16 10 -6
0 -7 -4 -4 -10z"/>
<path d="M4196 3329 c6 -11 44 -12 44 -1 0 4 -11 8 -25 8 -14 1 -22 -2 -19 -7z"/>
<path d="M3906 3294 c-4 -9 -4 -19 -2 -21 8 -8 26 8 26 23 0 19 -16 18 -24 -2z"/>
<path d="M3942 3270 c6 -20 55 -31 68 -15 8 10 6 13 -12 12 -13 0 -31 3 -42 8
-14 6 -18 5 -14 -5z"/>
<path d="M4130 3275 c0 -2 9 -9 20 -15 16 -9 18 -8 14 5 -5 13 -34 22 -34 10z"/>
<path d="M4270 3269 c0 -5 11 -9 25 -9 33 0 33 15 0 16 -14 1 -25 -2 -25 -7z"/>
<path d="M4088 3253 c7 -3 16 -2 19 1 4 3 -2 6 -13 5 -11 0 -14 -3 -6 -6z"/>
<path d="M4130 3229 c0 -5 5 -7 10 -4 6 3 10 8 10 11 0 2 -4 4 -10 4 -5 0 -10
-5 -10 -11z"/>
<path d="M2859 3233 c-13 -16 -12 -17 4 -4 16 13 21 21 13 21 -2 0 -10 -8 -17
-17z"/>
<path d="M2260 3170 c0 -5 7 -10 15 -10 8 0 15 5 15 10 0 6 -7 10 -15 10 -8 0
-15 -4 -15 -10z"/>
<path d="M2190 3160 c0 -5 7 -10 15 -10 8 0 15 5 15 10 0 6 -7 10 -15 10 -8 0
-15 -4 -15 -10z"/>
<path d="M2106 3151 c-3 -5 3 -11 14 -14 13 -3 20 0 20 9 0 15 -26 19 -34 5z"/>
<path d="M2190 3120 c0 -5 4 -10 9 -10 6 0 13 5 16 10 3 6 -1 10 -9 10 -9 0
-16 -4 -16 -10z"/>
<path d="M2105 3090 c-14 -16 -15 -20 -4 -20 16 0 39 19 39 32 0 14 -16 9 -35
-12z"/>
<path d="M2030 3060 c0 -5 5 -10 10 -10 6 0 10 5 10 10 0 6 -4 10 -10 10 -5 0
-10 -4 -10 -10z"/>
<path d="M1798 3015 c-21 -19 -46 -35 -57 -35 -10 0 -21 -9 -24 -20 -3 -12
-14 -20 -26 -20 -13 0 -19 -5 -15 -14 6 -16 -24 -36 -43 -29 -7 3 -13 0 -13
-6 0 -6 5 -11 12 -11 9 0 8 -3 -1 -12 -11 -11 -14 -10 -18 0 -3 6 -9 9 -14 6
-6 -3 -2 -12 8 -20 17 -13 17 -13 -2 -14 -14 0 -20 -7 -21 -25 -3 -36 7 -31
49 25 21 28 42 48 47 45 6 -4 10 0 10 7 0 23 63 78 85 74 11 -2 14 -1 7 1 -24
8 49 65 75 58 26 -6 32 10 7 19 -24 9 -26 8 -66 -29z"/>
<path d="M1950 3010 c0 -5 7 -10 16 -10 8 0 12 5 9 10 -3 6 -10 10 -16 10 -5
0 -9 -4 -9 -10z"/>
<path d="M1954 2955 c-4 -8 -11 -15 -18 -15 -6 0 -34 -18 -63 -39 -36 -28 -59
-38 -75 -35 -19 4 -20 3 -4 -4 17 -7 16 -11 -15 -36 -25 -21 -29 -30 -19 -36
18 -11 31 -3 23 15 -3 9 1 15 10 15 8 0 31 15 50 33 48 44 79 67 92 67 12 0
45 32 45 43 0 13 -21 7 -26 -8z"/>
<path d="M1707 2786 c-3 -7 -26 -18 -52 -25 -25 -6 -43 -16 -40 -21 4 -6 19
-4 41 5 31 13 34 12 35 -3 0 -12 3 -11 9 6 5 12 16 25 25 28 8 4 15 10 15 15
0 14 -27 10 -33 -5z"/>
<path d="M1510 2740 c0 -5 5 -10 10 -10 6 0 10 5 10 10 0 6 -4 10 -10 10 -5 0
-10 -4 -10 -10z"/>
<path d="M1568 2688 c9 -9 15 -9 24 0 9 9 7 12 -12 12 -19 0 -21 -3 -12 -12z"/>
<path d="M1110 2779 c0 -5 5 -7 10 -4 6 3 10 8 10 11 0 2 -4 4 -10 4 -5 0 -10
-5 -10 -11z"/>
<path d="M830 2990 c0 -5 5 -10 10 -10 6 0 10 5 10 10 0 6 -4 10 -10 10 -5 0
-10 -4 -10 -10z"/>
<path d="M2077 2908 c-10 -11 -16 -23 -12 -26 4 -4 13 1 20 11 8 12 15 14 20
8 3 -6 11 -11 17 -11 7 0 7 4 -1 13 -6 8 -8 17 -4 20 3 4 0 7 -8 6 -8 0 -22
-10 -32 -21z"/>
<path d="M2035 2880 c-4 -6 -3 -16 3 -22 6 -6 12 -6 17 2 4 6 3 16 -3 22 -6 6
-12 6 -17 -2z"/>
<path d="M1990 2850 c0 -5 7 -10 15 -10 8 0 15 5 15 10 0 6 -7 10 -15 10 -8 0
-15 -4 -15 -10z"/>
<path d="M1955 2820 c-3 -5 3 -10 14 -10 12 0 21 5 21 10 0 6 -6 10 -14 10 -8
0 -18 -4 -21 -10z"/>
<path d="M1905 2760 c3 -5 8 -10 11 -10 2 0 4 5 4 10 0 6 -5 10 -11 10 -5 0
-7 -4 -4 -10z"/>
<path d="M1880 2740 c0 -5 5 -10 10 -10 6 0 10 5 10 10 0 6 -4 10 -10 10 -5 0
-10 -4 -10 -10z"/>
<path d="M3265 2609 c-11 -17 0 -20 21 -4 17 13 17 14 2 15 -9 0 -20 -5 -23
-11z"/>
<path d="M4370 3179 c0 -5 5 -7 10 -4 6 3 10 8 10 11 0 2 -4 4 -10 4 -5 0 -10
-5 -10 -11z"/>
<path d="M4470 3180 c-13 -8 -12 -10 3 -10 9 0 17 5 17 10 0 12 -1 12 -20 0z"/>
<path d="M4556 3155 c5 -13 -3 -14 -53 -10 -70 5 -108 -10 -47 -20 21 -3 62
-10 89 -16 28 -6 64 -13 80 -15 63 -11 161 -48 188 -70 30 -25 53 -30 76 -15
8 6 41 -6 95 -36 44 -24 104 -55 131 -69 57 -28 77 -39 122 -71 46 -33 57 -28
31 16 -12 22 -26 37 -30 35 -5 -3 -8 1 -8 10 0 8 -13 17 -30 21 -16 4 -30 10
-30 14 0 9 -61 32 -71 26 -4 -3 -5 4 -2 15 4 15 0 20 -16 20 -22 0 -100 37
-112 53 -3 4 -17 3 -32 -2 -22 -9 -29 -7 -44 14 -17 24 -43 32 -163 51 -19 3
-38 11 -41 16 -4 6 -21 9 -38 6 -18 -3 -34 -1 -37 4 -3 5 -10 6 -15 3 -5 -4
-9 -2 -9 4 0 6 -9 15 -20 21 -16 9 -18 8 -14 -5z"/>
<path d="M3848 3143 c7 -3 16 -2 19 1 4 3 -2 6 -13 5 -11 0 -14 -3 -6 -6z"/>
<path d="M4790 3120 c0 -5 7 -10 16 -10 8 0 12 5 9 10 -3 6 -10 10 -16 10 -5
0 -9 -4 -9 -10z"/>
<path d="M4840 3110 c8 -5 20 -10 25 -10 6 0 3 5 -5 10 -8 5 -19 10 -25 10 -5
0 -3 -5 5 -10z"/>
<path d="M2571 3063 c-14 -9 -40 -19 -60 -22 -43 -7 -52 -26 -11 -25 55 3 60
4 60 18 0 17 59 30 75 16 9 -7 16 -6 25 5 7 8 11 15 9 15 -2 1 -20 3 -39 6
-24 3 -43 -1 -59 -13z"/>
<path d="M4917 3064 c3 -7 9 -14 14 -14 14 0 10 17 -5 23 -10 4 -13 1 -9 -9z"/>
<path d="M4680 3050 c0 -5 5 -10 11 -10 5 0 7 5 4 10 -3 6 -8 10 -11 10 -2 0
-4 -4 -4 -10z"/>
<path d="M2584 3025 c-18 -15 -18 -15 5 -13 14 2 26 9 29 16 5 17 -10 15 -34
-3z"/>
<path d="M2963 3016 c4 -10 7 -22 7 -27 0 -5 5 -9 11 -9 15 0 7 43 -10 48 -10
3 -12 0 -8 -12z"/>
<path d="M5068 3013 c7 -3 16 -2 19 1 4 3 -2 6 -13 5 -11 0 -14 -3 -6 -6z"/>
<path d="M2419 2990 c-13 -10 -19 -19 -13 -20 7 0 22 9 35 20 13 10 19 19 13
20 -7 0 -22 -9 -35 -20z"/>
<path d="M2480 2990 c-12 -8 -9 -10 13 -10 15 0 27 5 27 10 0 13 -20 13 -40 0z"/>
<path d="M4902 2988 c4 -12 31 -30 103 -69 22 -12 51 -29 65 -39 14 -9 34 -20
45 -24 18 -6 18 -5 5 7 -26 25 -222 138 -218 125z"/>
<path d="M3410 2973 c0 -4 5 -15 10 -23 8 -13 10 -13 10 2 0 9 -4 20 -10 23
-5 3 -10 3 -10 -2z"/>
<path d="M4180 2975 c0 -5 14 -18 155 -146 113 -103 253 -239 319 -309 34 -35
81 -85 106 -110 25 -26 72 -77 105 -115 33 -37 65 -73 70 -79 6 -6 25 -29 44
-51 73 -86 103 -117 108 -111 7 6 -106 140 -241 287 -215 233 -352 377 -361
378 -5 1 -29 21 -52 45 -23 23 -71 67 -107 96 -36 29 -66 57 -66 60 0 4 -18
19 -40 34 -22 14 -40 24 -40 21z"/>
<path d="M2538 2953 c-10 -2 -18 -8 -18 -13 0 -4 9 -6 20 -3 11 3 20 9 20 14
0 5 -1 8 -2 8 -2 -1 -11 -3 -20 -6z"/>
<path d="M4671 2925 c13 -12 99 -54 99 -47 0 8 -80 52 -94 52 -5 0 -7 -2 -5
-5z"/>
<path d="M4550 2909 c0 -5 5 -7 10 -4 6 3 10 8 10 11 0 2 -4 4 -10 4 -5 0 -10
-5 -10 -11z"/>
<path d="M2583 2868 c-22 -26 -37 -48 -30 -48 3 0 17 16 31 35 30 39 30 46 -1
13z"/>
<path d="M4625 2880 c-3 -5 -1 -10 4 -10 6 0 11 5 11 10 0 6 -2 10 -4 10 -3 0
-8 -4 -11 -10z"/>
<path d="M4686 2865 c4 -8 8 -15 10 -15 2 0 4 7 4 15 0 8 -4 15 -10 15 -5 0
-7 -7 -4 -15z"/>
<path d="M2201 2827 c-12 -16 -5 -27 17 -27 9 0 12 3 9 7 -4 3 -2 12 4 20 9
10 8 13 -4 13 -8 0 -20 -6 -26 -13z"/>
<path d="M5176 2822 c5 -5 33 -25 62 -45 52 -37 86 -50 58 -22 -8 8 -19 15
-24 15 -5 0 -17 9 -27 20 -10 11 -24 20 -32 20 -7 0 -13 5 -13 10 0 6 -8 10
-17 10 -10 0 -13 -3 -7 -8z"/>
<path d="M4767 2789 c-38 -53 45 -129 109 -100 37 16 34 73 -5 100 -38 27 -85
27 -104 0z"/>
<path d="M4904 2785 c11 -8 22 -12 25 -9 6 6 -19 24 -34 24 -5 -1 -1 -7 9 -15z"/>
<path d="M2900 2781 c0 -6 5 -13 10 -16 6 -3 10 1 10 9 0 9 -4 16 -10 16 -5 0
-10 -4 -10 -9z"/>
<path d="M5133 2773 c9 -9 20 -13 24 -9 4 4 1 11 -7 16 -25 16 -35 11 -17 -7z"/>
<path d="M3425 2770 c3 -5 11 -10 16 -10 6 0 7 5 4 10 -3 6 -11 10 -16 10 -6
0 -7 -4 -4 -10z"/>
<path d="M3759 2748 c4 -12 14 -24 20 -26 8 -3 7 5 -4 22 -21 32 -27 33 -16 4z"/>
<path d="M4340 2741 c0 -9 30 -24 36 -18 2 1 -6 8 -16 15 -11 7 -20 8 -20 3z"/>
<path d="M2710 2710 c0 -5 4 -10 9 -10 6 0 13 5 16 10 3 6 -1 10 -9 10 -9 0
-16 -4 -16 -10z"/>
<path d="M4910 2693 c1 -5 31 -31 68 -60 37 -29 90 -74 117 -101 67 -65 165
-146 165 -137 0 4 -11 21 -25 37 -14 16 -22 35 -19 40 4 6 2 8 -3 5 -6 -4 -29
11 -52 33 -23 22 -45 40 -50 40 -5 0 -14 7 -21 16 -20 24 -160 134 -171 134
-5 0 -9 -3 -9 -7z"/>
<path d="M4300 2642 c0 -5 16 -13 35 -16 112 -21 175 -74 287 -239 45 -67 84
-124 87 -127 7 -6 84 -120 91 -135 3 -6 30 -49 61 -95 31 -47 59 -94 63 -105
3 -12 0 -45 -8 -75 -8 -30 -13 -56 -12 -58 4 -3 139 147 151 167 4 7 -6 4 -22
-8 -59 -44 -110 0 -238 209 -191 312 -278 420 -370 461 -50 21 -125 34 -125
21z"/>
<path d="M2370 2609 c0 -5 5 -7 10 -4 6 3 10 8 10 11 0 2 -4 4 -10 4 -5 0 -10
-5 -10 -11z"/>
<path d="M2120 2589 c0 -5 5 -7 10 -4 6 3 10 8 10 11 0 2 -4 4 -10 4 -5 0 -10
-5 -10 -11z"/>
<path d="M2156 2553 c-6 -14 -5 -15 5 -6 7 7 10 15 7 18 -3 3 -9 -2 -12 -12z"/>
<path d="M1937 2433 c-48 -48 -87 -92 -87 -97 0 -6 22 13 48 43 27 29 71 73
98 97 27 24 44 43 38 44 -6 0 -50 -39 -97 -87z"/>
<path d="M2471 2474 c0 -11 3 -14 6 -6 3 7 2 16 -1 19 -3 4 -6 -2 -5 -13z"/>
<path d="M4141 2440 c-1 -9 54 -163 62 -177 5 -7 6 -17 3 -22 -3 -5 2 -19 12
-32 10 -13 24 -44 31 -69 7 -25 18 -56 23 -70 11 -27 78 -244 108 -351 24 -82
40 -119 53 -119 14 0 4 42 -46 185 -24 72 -62 184 -82 250 -35 111 -52 160
-109 306 -20 51 -54 112 -55 99z"/>
<path d="M2446 2403 c-6 -14 -5 -15 5 -6 7 7 10 15 7 18 -3 3 -9 -2 -12 -12z"/>
<path d="M3781 2354 c0 -11 3 -14 6 -6 3 7 2 16 -1 19 -3 4 -6 -2 -5 -13z"/>
<path d="M1940 2351 c0 -6 5 -11 10 -11 6 0 10 -5 10 -11 0 -5 -4 -7 -10 -4
-5 3 -10 -1 -10 -10 0 -9 -4 -13 -10 -10 -6 3 -7 -1 -4 -9 5 -12 11 -9 31 15
14 16 23 33 19 36 -3 4 -6 3 -6 -2 0 -4 -7 -2 -15 5 -10 9 -15 9 -15 1z"/>
<path d="M4490 2331 c0 -5 4 -11 8 -13 5 -1 15 -15 23 -29 55 -102 118 -225
149 -289 81 -171 134 -262 141 -243 4 10 -1 31 -11 48 -9 17 -25 46 -35 65
-10 19 -23 44 -28 55 -6 11 -34 65 -63 120 -58 112 -135 247 -144 255 -4 3 -9
13 -13 23 -7 18 -27 24 -27 8z"/>
<path d="M1826 2314 c-8 -21 -8 -24 3 -24 12 0 22 28 12 35 -5 3 -12 -2 -15
-11z"/>
<path d="M3021 2304 c0 -11 3 -14 6 -6 3 7 2 16 -1 19 -3 4 -6 -2 -5 -13z"/>
<path d="M2267 2303 c-4 -3 -7 -11 -7 -17 0 -6 5 -5 12 2 6 6 9 14 7 17 -3 3
-9 2 -12 -2z"/>
<path d="M1736 2278 c-20 -28 -20 -62 -1 -78 36 -30 94 38 68 79 -16 25 -49
25 -67 -1z"/>
<path d="M3814 2265 c4 -11 10 -33 13 -50 2 -16 7 -37 10 -45 3 -8 7 -22 8
-30 2 -8 10 -58 19 -110 9 -52 22 -158 29 -234 8 -93 16 -141 25 -144 8 -2 12
13 13 55 1 32 1 62 0 67 -1 5 -4 25 -7 45 -10 79 -25 167 -31 186 -7 23 -11
44 -19 100 -4 22 -10 45 -14 50 -4 6 -13 33 -20 60 -7 28 -17 55 -23 60 -7 7
-8 3 -3 -10z"/>
<path d="M3796 2220 c3 -30 7 -57 10 -59 10 -11 10 8 -2 59 l-13 55 5 -55z"/>
<path d="M2241 2244 c0 -11 3 -14 6 -6 3 7 2 16 -1 19 -3 4 -6 -2 -5 -13z"/>
<path d="M1865 2229 c-4 -6 -5 -12 -2 -15 2 -3 7 2 10 11 7 17 1 20 -8 4z"/>
<path d="M1470 2200 c0 -5 5 -10 10 -10 6 0 10 5 10 10 0 6 -4 10 -10 10 -5 0
-10 -4 -10 -10z"/>
<path d="M1970 2180 c0 -5 5 -10 11 -10 5 0 7 5 4 10 -3 6 -8 10 -11 10 -2 0
-4 -4 -4 -10z"/>
<path d="M2201 2114 c0 -11 3 -14 6 -6 3 7 2 16 -1 19 -3 4 -6 -2 -5 -13z"/>
<path d="M2430 2111 c0 -6 -6 -11 -13 -11 -8 0 -14 -7 -14 -15 0 -8 6 -15 14
-15 7 0 13 6 13 14 0 8 5 16 12 18 9 3 9 6 0 12 -7 4 -12 2 -12 -3z"/>
<path d="M3811 2100 c0 -14 4 -32 9 -40 9 -13 10 -13 9 0 -1 8 -5 26 -9 40
l-8 25 -1 -25z"/>
<path d="M1906 2043 c-53 -53 -44 -123 16 -123 18 0 38 4 44 8 22 15 35 53 29
85 -14 63 -45 74 -89 30z"/>
<path d="M2021 2044 c0 -11 3 -14 6 -6 3 7 2 16 -1 19 -3 4 -6 -2 -5 -13z"/>
<path d="M2373 2040 c-8 -12 -9 -21 -3 -25 6 -3 10 1 10 9 0 10 6 13 16 9 11
-4 15 -2 12 7 -7 22 -22 22 -35 0z"/>
<path d="M5095 2030 c-3 -5 -1 -10 4 -10 6 0 11 5 11 10 0 6 -2 10 -4 10 -3 0
-8 -4 -11 -10z"/>
<path d="M2171 2023 c-1 -6 -4 -20 -7 -30 -5 -17 -5 -17 6 0 6 10 9 23 6 30
-3 9 -5 9 -5 0z"/>
<path d="M3590 2010 c6 -11 13 -20 16 -20 2 0 0 9 -6 20 -6 11 -13 20 -16 20
-2 0 0 -9 6 -20z"/>
<path d="M2392 1998 c-16 -16 -15 -28 1 -28 7 0 18 9 25 20 10 16 10 20 -1 20
-7 0 -18 -5 -25 -12z"/>
<path d="M3822 1925 c0 -71 1 -75 8 -34 4 26 4 62 0 80 -6 26 -8 15 -8 -46z"/>
<path d="M4271 1984 c0 -11 3 -14 6 -6 3 7 2 16 -1 19 -3 4 -6 -2 -5 -13z"/>
<path d="M2382 1939 c2 -7 10 -15 17 -17 8 -3 12 1 9 9 -2 7 -10 15 -17 17 -8
3 -12 -1 -9 -9z"/>
<path d="M2430 1936 c0 -9 5 -16 10 -16 6 0 10 4 10 9 0 6 -4 13 -10 16 -5 3
-10 -1 -10 -9z"/>
<path d="M2146 1925 c-9 -26 -7 -32 5 -12 6 10 9 21 6 23 -2 3 -7 -2 -11 -11z"/>
<path d="M1816 1905 c-9 -26 -7 -32 5 -12 6 10 9 21 6 23 -2 3 -7 -2 -11 -11z"/>
<path d="M1878 1895 c-4 -4 -4 -14 -1 -23 5 -12 1 -14 -15 -10 -19 5 -21 3
-16 -18 5 -18 2 -24 -10 -24 -9 0 -16 -8 -16 -20 0 -11 -20 -61 -44 -112 -48
-101 -61 -146 -48 -166 13 -20 23 -3 82 148 29 74 59 148 67 163 14 28 15 76
1 62z"/>
<path d="M3822 1765 c0 -16 2 -22 5 -12 2 9 2 23 0 30 -3 6 -5 -1 -5 -18z"/>
<path d="M4155 1725 c3 -38 5 -103 5 -144 0 -41 2 -72 5 -69 10 10 6 234 -4
258 -9 20 -11 12 -6 -45z"/>
<path d="M3855 1754 c-4 -16 -8 -35 -11 -41 -2 -7 0 -13 5 -13 5 0 11 17 13
38 6 45 1 55 -7 16z"/>
<path d="M1601 1761 c-7 -5 -12 -13 -10 -18 2 -5 12 -1 22 9 18 19 12 24 -12
9z"/>
<path d="M2112 1740 c0 -14 2 -19 5 -12 2 6 2 18 0 25 -3 6 -5 1 -5 -13z"/>
<path d="M2101 1694 c0 -11 3 -14 6 -6 3 7 2 16 -1 19 -3 4 -6 -2 -5 -13z"/>
<path d="M1710 1685 c0 -8 4 -15 8 -15 5 0 9 7 9 15 0 8 -4 15 -9 15 -4 0 -8
-7 -8 -15z"/>
<path d="M1836 1645 c-9 -26 -7 -32 5 -12 6 10 9 21 6 23 -2 3 -7 -2 -11 -11z"/>
<path d="M1712 1620 c0 -14 2 -19 5 -12 2 6 2 18 0 25 -3 6 -5 1 -5 -13z"/>
<path d="M2088 1617 c-3 -19 -2 -25 4 -19 6 6 8 18 6 28 -3 14 -5 12 -10 -9z"/>
<path d="M2710 1596 c0 -19 58 -273 70 -306 4 -14 11 -42 15 -62 3 -21 10 -38
15 -38 15 0 12 24 -14 108 -13 42 -36 130 -51 195 -24 108 -35 139 -35 103z"/>
<path d="M2081 1554 c0 -11 3 -14 6 -6 3 7 2 16 -1 19 -3 4 -6 -2 -5 -13z"/>
<path d="M4100 1560 c0 -5 5 -10 11 -10 5 0 7 5 4 10 -3 6 -8 10 -11 10 -2 0
-4 -4 -4 -10z"/>
<path d="M2402 1345 c0 -93 5 -178 10 -189 18 -34 24 1 16 86 -5 46 -13 126
-17 178 -8 90 -9 86 -9 -75z"/>
<path d="M2068 1455 c2 -14 6 -25 8 -25 2 0 4 11 4 25 0 14 -4 25 -9 25 -4 0
-6 -11 -3 -25z"/>
<path d="M2068 1400 c-10 -23 -6 -52 5 -41 5 5 7 19 5 32 -3 17 -6 20 -10 9z"/>
</g>
</svg>
